<svg width="701" height="99" xmlns="http://www.w3.org/2000/svg" xmlns:xlink="http://www.w3.org/1999/xlink" overflow="hidden"><defs><clipPath id="clip0"><rect x="3126" y="817" width="701" height="99"/></clipPath></defs><g clip-path="url(#clip0)" transform="translate(-3126 -817)"><path d="M3129.5 911.281 3131.97 910.331C3229.87 876.345 3347.88 856.5 3474.91 856.5 3601.95 856.5 3719.96 876.345 3817.86 910.331L3823.5 912.5" stroke="#000000" stroke-width="6.875" stroke-linecap="round" stroke-miterlimit="8" fill="none" fill-rule="evenodd"/><path d="M3400 846.276C3400 840.601 3404.6 836 3410.28 836L3541.72 836C3547.4 836 3552 840.601 3552 846.276L3552 862.724C3552 868.399 3547.4 873 3541.72 873L3410.28 873C3404.6 873 3400 868.399 3400 862.724Z" fill="#FFFFFF" fill-rule="evenodd"/><text font-family="Nunito,Nunito_MSFontService,sans-serif" font-weight="400" font-size="41" transform="matrix(1 0 0 1 3419.57 867)">экран</text></g></svg>